<svg height="477.60001pt" viewBox="0 0 477.60001 477.60001" width="477.60001pt" xmlns="http://www.w3.org/2000/svg"><path d="m477.601562 238.800781c0 131.886719-106.914062 238.800781-238.800781 238.800781s-238.800781-106.914062-238.800781-238.800781 106.914062-238.800781 238.800781-238.800781 238.800781 106.914062 238.800781 238.800781zm0 0" fill="#382b73"/><path d="m445.398438 238.800781c0 114.101563-92.496094 206.597657-206.597657 206.597657-114.101562 0-206.597656-92.496094-206.597656-206.597657 0-114.101562 92.496094-206.597656 206.597656-206.597656 114.101563 0 206.597657 92.496094 206.597657 206.597656zm0 0" fill="#473080"/><path d="m407.347656 325.570312c.007813-.046874.003906-.097656.011719-.144531.050781-.335937.078125-.671875.089844-1.015625.003906-.101562.007812-.199218.007812-.300781 0-.414063-.019531-.832031-.078125-1.257813l-.1875-1.371093-.589844-4.257813-1.210937-8.714844-1.027344-7.386718c-.785156-5.65625-4.054687-10.589844-8.8125-13.566406-.804687-.503907-1.640625-.96875-2.523437-1.351563l-22.738282-7.679687-4.105468-4.84375-4.269532 3.457031 4.269532-3.457031v-6.3125c2.960937-3.875 4.597656-8.929688 5.472656-14.019532 2.53125-.117187 4.878906-3.304687 5.371094-7.507812.371094-3.183594-.429688-6.039063-1.890625-7.558594.035156-.277344.066406-.558594.09375-.839844.039062-.378906.070312-.757812.097656-1.140625.027344-.316406.050781-.628906.070313-.949219.023437-.386718.03125-.777343.039062-1.164062.007812-.308594.019531-.617188.019531-.925781 0-.394531-.015625-.785157-.027343-1.175781-.007813-.296876-.015626-.59375-.03125-.882813-.027344-.402344-.074219-.792969-.113282-1.183594-.027344-.269531-.050781-.542969-.085937-.808593-.058594-.429688-.144531-.839844-.230469-1.253907-.039062-.210937-.070312-.429687-.117188-.636719-.144531-.609374-.316406-1.203124-.523437-1.765624-.789063-2.175782-2.136719-3.582032-3.613281-4.492188-1.636719-1-3.417969-1.386719-4.800782-1.527344l.003907-.007812c-.050781-.003906-.09375-.003906-.144531-.007813-.070313-.007812-.148438-.019531-.214844-.023437-.175782-.015625-.332032-.019532-.492188-.027344-.039062 0-.085937-.003906-.128906-.007812-.253906-.007813-.476562-.007813-.667969-.003907-.058593 0-.09375.003907-.144531.003907-.136719.003906-.246094.007812-.332031.015624-.046875 0-.0625.003907-.09375.003907-.078125.007812-.128907.011719-.128907.011719l-.007812.027343c-.007812-.035156-.019531-.070312-.03125-.105469.007812.015626.019531.03125.027344.046876-.011719-.050782-.035156-.097657-.050782-.148438-.027343-.085938-.058593-.171875-.085937-.257812-.042969-.121094-.085937-.246094-.136719-.363282-.0625-.152344-.132812-.300781-.203125-.449218-.019531-.039063-.035156-.078126-.054687-.117188-.023438-.054688-.042969-.105469-.070313-.15625-.03125-.0625-.078125-.121094-.113281-.183594-.085938-.148437-.183594-.296875-.28125-.441406-.085938-.132812-.171875-.265625-.269531-.390625-.039063-.054687-.074219-.109375-.117188-.160156-.085937-.109375-.1875-.210938-.277343-.316407-.121094-.136718-.246094-.273437-.378907-.410156-.085937-.085937-.164062-.171875-.257812-.257812-.066407-.0625-.148438-.121094-.222657-.1875-.136718-.117188-.277343-.238282-.425781-.351563-.167969-.132812-.34375-.261719-.523437-.390625-.082032-.058594-.15625-.117187-.238282-.171875-.015624-.011719-.03125-.023437-.046874-.035156 0 .003906.003906.007813.003906.011719-.046875-.035156-.109375-.0625-.160156-.09375-.324219-.210938-.675782-.40625-1.042969-.601563-.160157-.085937-.3125-.171875-.480469-.25-.550781-.265625-1.128906-.519531-1.769531-.753906-5.65625-2.066406-17.878907-2.515625-23.96875 9.664063-.355469.714843-.671875 1.449218-.960938 2.191406-.097656.246094-.171875.496094-.265625.746094-.179687.503906-.351562 1.007812-.507812 1.519531-.085938.292969-.160156.585937-.238282.878906-.128906.480469-.25.960937-.355468 1.445313-.066406.300781-.125.605468-.183594.914062-.09375.480469-.175781.964844-.246094 1.449219-.042968.296875-.089844.589843-.125.882812-.066406.515625-.117187 1.023438-.160156 1.535157-.023438.257812-.050781.511718-.066406.769531-.046875.660156-.074219 1.3125-.085938 1.960937-.003906.097656-.011718.191406-.011718.289063v.007812c-2.550782.550781-4.195313 4.289063-3.6875 8.605469.503906 4.316406 2.96875 7.574219 5.578124 7.519531.875 5.085938 2.507813 10.136719 5.46875 14.011719v1.863281l.003907 4.445313 4.265625 3.457031-4.265625-3.457031-4.105469 4.847656-.199219.066406-3.09375 1.042969-9.683593 3.269531c-1.941407-1.957031-4.140626-3.675781-6.554688-5.097656-1.144531-.675781-2.332031-1.285156-3.566406-1.824219l-38.488282-12.996093-6.953124-8.203126-7.222657 5.855469 7.222657-5.855469v-10.679687c2.886718-3.773437 5.039062-8.207031 6.621093-12.941406.25-.753907.488281-1.515625.710938-2.28125.804687-2.761719 1.429687-5.601563 1.921875-8.445313 4.289062-.183594 8.269531-5.652344 9.101562-12.777344.628906-5.382812-.710937-10.253906-3.183594-12.820312.023438-.195312.046876-.386719.066407-.582031.03125-.265625.058593-.53125.085937-.800781.03125-.320313.0625-.640626.089844-.957032.027344-.273437.046875-.542968.070312-.8125.023438-.320312.046876-.640625.070313-.960937.015625-.273438.03125-.546875.050781-.820313.015625-.316406.03125-.636718.042969-.953125.011719-.273437.019531-.546875.027344-.820312.011719-.320313.019531-.640625.023437-.957031.003906-.269532.003906-.539063.007813-.804688 0-.320312-.003907-.640625-.007813-.960938-.003906-.265624-.007812-.53125-.019531-.796874-.007813-.316407-.023437-.628907-.035156-.941407-.011719-.265625-.023438-.527343-.039063-.789062-.023437-.316407-.046875-.625-.074218-.9375-.023438-.257813-.039063-.511719-.066407-.761719-.03125-.316406-.070312-.625-.105469-.933594-.03125-.246094-.058593-.492187-.09375-.734375-.042968-.316406-.09375-.625-.144531-.933593-.039062-.230469-.074219-.464844-.117187-.691407-.058594-.324219-.128906-.636719-.199219-.949219-.046875-.210937-.085937-.421874-.132813-.628906-.082031-.347656-.175781-.683594-.269531-1.019531-.046875-.167969-.085937-.335937-.136719-.5-.144531-.496094-.304687-.984375-.476562-1.460937-.371094-1.019532-.832031-1.90625-1.332031-2.734376-1.308594-2.167968-2.980469-3.757812-4.789063-4.867187-.5-.308594-1.011718-.582031-1.523437-.824219-.675781-.320312-1.351563-.570312-2.023438-.792968-1.300781-.433594-2.570312-.710938-3.71875-.871094-.296875-.042969-.578125-.070313-.859375-.101563l.003906-.007812c-.15625-.015625-.296874-.027344-.445312-.039063-.089844-.007812-.179688-.015625-.265625-.023437-.34375-.023438-.671875-.039063-.96875-.050781-.066406 0-.125 0-.191406-.003907-.246094-.003906-.472657-.007812-.679688-.003906-.03125 0-.078125-.003906-.105469-.003906-.03125 0-.054687.003906-.085937.003906-.230469.003906-.441406.007813-.609375.015625-.027344.003906-.042969.003906-.066406.003906-.148438.007813-.265625.015625-.355469.023438-.046875.003906-.0625.003906-.09375.003906-.0625.007812-.105469.011719-.105469.011719l-.003906.023437c-.011719-.035156-.019531-.070312-.03125-.109375.007812.015625.015625.023438.019531.035157-.011719-.046876-.03125-.089844-.046875-.136719-.070312-.246094-.152344-.488281-.238281-.730469-.039063-.101562-.074219-.203125-.113281-.304688-.050782-.132812-.097656-.261718-.15625-.390624-.015625-.046876-.039063-.089844-.058594-.132813-.128906-.285156-.265625-.574219-.414062-.855469-.011719-.019531-.027344-.039062-.039063-.0625-.066406-.121094-.144531-.242187-.210937-.363281-.054688-.09375-.109376-.1875-.164063-.277344-.136719-.21875-.285156-.433593-.433594-.644531-.058593-.085938-.121093-.171875-.183593-.257812-.105469-.140626-.207032-.28125-.316407-.417969-.058593-.074219-.125-.148438-.1875-.222657-.1875-.21875-.371093-.441406-.578125-.660156-.023437-.023437-.046875-.046875-.074218-.074218-.125-.132813-.261719-.265626-.394532-.394532-.078125-.078125-.152344-.15625-.230468-.230468-.203126-.183594-.414063-.367188-.632813-.550782-.082031-.074218-.167969-.144531-.253906-.214844-.171875-.140624-.351563-.28125-.535157-.421874-.109374-.082032-.226562-.164063-.339843-.246094-.234375-.167969-.46875-.339844-.71875-.503906-.015625-.007813-.023438-.019532-.035157-.027344 0 0 0 .003906.003907.003906-.257813-.167969-.53125-.335938-.808594-.5-.074219-.042969-.144531-.09375-.222656-.136719-.613281-.359375-1.28125-.703125-1.980469-1.035156-.164062-.078125-.332031-.152344-.503906-.226563-.734375-.332031-1.5-.65625-2.332032-.960937-9.570312-3.496094-30.257812-4.257813-40.566406 16.355469-.503906 1.011718-.957031 2.046875-1.382812 3.089844-.066406.167968-.136719.332031-.203125.5-.394531 1-.746094 2.011718-1.074219 3.035156-.0625.199218-.125.398437-.183594.59375-.316406 1.035156-.605468 2.074218-.855468 3.117187-.03125.136719-.058594.277344-.089844.410157-.238282 1.03125-.449219 2.0625-.632813 3.09375-.015625.101562-.039062.203124-.058593.308593-.179688 1.0625-.328126 2.128907-.457032 3.1875-.023437.199219-.046875.398438-.070312.597657-.113282 1.03125-.207032 2.0625-.273438 3.085937-.011718.1875-.019531.371094-.03125.558594-.058594 1.035156-.101562 2.0625-.117187 3.078125-4.324219.917968-7.101563 7.289062-6.242188 14.601562.855469 7.316406 5.027344 12.871094 9.445313 12.769532.976562 5.636718 2.503906 11.246093 4.847656 16.289062 1.230469 2.648438 2.683594 5.132812 4.40625 7.386719v10.679687l7.226562 5.855469-7.226562-5.855469-6.949219 8.203125-.335937.113281-6.480469 2.1875-31.671875 10.695313c-1.140625.496094-2.234375 1.058594-3.292969 1.671875-2.523437 1.453125-4.816406 3.21875-6.832031 5.253906l-12.976562-4.382812-4.105469-4.84375-4.269531 3.457031 4.269531-3.457031v-6.3125c2.960937-3.875 4.597656-8.933594 5.472656-14.019532 2.53125-.117187 4.878906-3.304687 5.371094-7.507812.371093-3.183594-.429688-6.039062-1.890625-7.554688.035156-.28125.070312-.558593.097656-.839843.035156-.382813.066406-.761719.097656-1.144531.023438-.316407.050782-.628907.066406-.949219.023438-.386719.03125-.769531.039063-1.15625.011719-.3125.023437-.625.023437-.933594 0-.394531-.015624-.78125-.027343-1.164063-.011719-.300781-.015625-.597656-.03125-.894531-.027344-.398437-.070313-.785156-.113281-1.179687-.03125-.269532-.046876-.546875-.085938-.808594-.058594-.429688-.144531-.839844-.230469-1.253906-.042969-.210938-.070312-.433594-.121093-.640625-.140626-.609375-.3125-1.199219-.519532-1.761719-.789062-2.175781-2.136718-3.585938-3.613281-4.492188-1.636719-1.003906-3.417969-1.386718-4.800781-1.53125l-.007813-.011718c-.054687-.003906-.09375-.003906-.144531-.007813-.070312-.007812-.148438-.019531-.214844-.023437-.175781-.015625-.332031-.019532-.492187-.027344-.042969 0-.085938-.003906-.128907-.007812-.257812-.007813-.476562-.007813-.667968-.003907-.058594 0-.09375.003907-.144532.003907-.136718.003906-.246093.007812-.332031.015624-.046875 0-.0625.003907-.097656.003907-.074219.007812-.125.011719-.125.011719l-.003906.027343c-.011719-.035156-.023438-.070312-.035157-.105469.011719.015626.023438.03125.03125.046876-.015624-.050782-.039062-.097657-.054687-.148438-.027344-.085938-.054687-.171875-.085937-.261719-.042969-.121093-.085938-.242187-.132813-.363281-.0625-.148438-.132813-.296875-.207031-.445312-.019532-.039063-.03125-.082032-.054688-.121094-.023437-.050782-.042968-.105469-.070312-.15625-.035156-.0625-.074219-.121094-.113282-.183594-.085937-.152344-.179687-.296875-.277343-.441406-.085938-.132813-.171875-.265625-.269531-.394532-.042969-.054687-.078126-.105468-.121094-.160156-.085938-.105468-.1875-.210937-.277344-.316406-.121094-.136719-.246094-.273438-.378906-.40625-.085938-.085938-.167969-.175781-.257813-.261719-.070312-.0625-.152343-.121093-.222656-.1875-.136719-.121093-.277344-.238281-.429687-.351562-.164063-.132813-.339844-.261719-.523438-.390625-.082031-.058594-.152344-.117188-.238281-.171875-.015625-.011719-.03125-.023438-.046875-.035157.003906.003907.003906.007813.007812.011719-.050781-.035156-.113281-.0625-.164062-.097656-.324219-.207031-.671875-.402344-1.042969-.597656-.160156-.085938-.3125-.171875-.480469-.25-.550781-.265625-1.128906-.519531-1.773437-.753907-5.652344-2.066406-17.875-2.515624-23.964844 9.664063-.359375.714844-.671875 1.449219-.960937 2.1875-.097657.246094-.175782.496094-.265626.746094-.179687.503906-.355468 1.011719-.507812 1.523437-.085938.292969-.160156.585938-.242188.878906-.128906.480469-.246093.960938-.351562 1.445313-.066406.300781-.128906.605469-.1875.914063-.09375.480468-.175781.964843-.246094 1.449218-.042968.292969-.089844.589844-.125.882813-.066406.515625-.113281 1.023437-.160156 1.535156-.019531.257813-.046875.511719-.066406.769531-.042969.660156-.074219 1.3125-.085938 1.960938-.003906.097656-.011718.191406-.011718.289062v.007813c-2.550782.550781-4.195313 4.289062-3.6875 8.605469.503906 4.316406 2.96875 7.574218 5.578124 7.519531.875 5.085937 2.507813 10.136719 5.46875 14.011719v6.308593l4.269532 3.457031-4.269532-3.457031-4.105468 4.847657-.195313.066406-3.257812 1.097656-19.28125 6.511719c-.660157.285156-1.289063.621093-1.902344.976562-5.097656 2.925781-8.617187 8.042969-9.4375 13.941407l-2.304687 16.609374-.421876 3.035157-.292968 2.089843c-.058594.421876-.078125.839844-.078125 1.253907 0 .101562.003906.203125.007812.304687.011719.34375.042969.683594.089844 1.015625.007813.046875.007813.097657.011719.144531l.007812-.027343c.105469.65625.28125 1.292969.519532 1.898437 1.324218 3.316406 4.550781 5.71875 8.417968 5.71875h65.449219l-.183594 1.320313-.441406 3.164062-.050781.371094c-.101563.71875-.132813 1.425781-.132813 2.125 0 .175781.007813.34375.015625.515625.019532.582031.066406 1.152344.148438 1.71875.015625.078125.011718.164062.023437.246094l.007813-.046875c.199218 1.242187.53125 2.445312 1.015625 3.574219 2.324219 5.429687 7.710937 9.320312 14.113281 9.320312h159.269531c6.402344 0 11.789063-3.890625 14.113281-9.320312.484376-1.128907.816407-2.332032 1.015626-3.574219l.007812.046875c.011719-.082032.007812-.167969.023438-.25.082031-.5625.132812-1.132813.148437-1.710938.007813-.175781.015625-.347656.015625-.519531 0-.703125-.03125-1.410156-.132812-2.125l-.050782-.375-.257812-1.835937-.367188-2.648438h65.449219c3.867187 0 7.09375-2.398438 8.414063-5.71875.242187-.601562.417968-1.238281.523437-1.894531zm0 0" fill="#382b73"/><path d="m173.289062 319.160156h-94.09375c-5.5 0-9.730468-4.859375-8.976562-10.3125l3.015625-21.730468c.921875-6.609376 5.21875-12.265626 11.339844-14.917969l10.445312-3.523438 4.03125-1.363281c.003907-.003906.003907-.003906.003907-.003906l8.058593-2.71875 4.300781-1.453125h29.644532l10.089844 3.40625.992187.335937 15.761719 5.320313c6.125 2.65625 10.421875 8.308593 11.339844 14.917969l1.027343 7.386718 1.210938 8.714844.78125 5.632812c.761719 5.449219-3.46875 10.308594-8.972657 10.308594zm0 0" fill="#e6e7e8"/><path d="m73.238281 290.082031c.917969-6.609375 5.21875-12.265625 11.339844-14.917969l26.84375-9.066406h29.644531l26.84375 9.066406c6.125 2.652344 10.417969 8.308594 11.335938 14.917969l2.984375 21.488281c.144531-.875.164062-1.789062.035156-2.71875l-3.019531-21.734374c-.917969-6.609376-5.214844-12.261719-11.335938-14.917969l-26.84375-9.066407h-29.644531l-26.84375 9.066407c-6.125 2.65625-10.421875 8.308593-11.339844 14.917969l-3.015625 21.734374c-.128906.929688-.109375 1.84375.035156 2.71875zm0 0" fill="#fff"/><path d="m181.976562 306.761719c-1.109374 3.699219-4.535156 6.46875-8.6875 6.46875h-94.089843c-4.152344 0-7.582031-2.769531-8.6875-6.46875l-.289063 2.089843c-.757812 5.445313 3.476563 10.308594 8.976563 10.308594h94.089843c5.503907 0 9.734376-4.859375 8.976563-10.308594zm0 0" fill="#d1d3d4"/><path d="m145.539062 264.957031-4.472656-5.28125-14.824218 12.011719-14.820313-12.011719-4.472656 5.28125c-.921875 2.007813-.902344 4.320313.058593 6.3125l13.9375 28.96875 5.300782 11.019531 19.238281-39.992187c.957031-1.992187.976563-4.304687.054687-6.308594zm0 0" fill="#e6e7e8"/><path d="m133.804688 319.160156-4.796876-40.164062h-5.527343l-4.796875 40.164062zm0 0" fill="#1caee4"/><path d="m119.390625 313.230469-.707031 5.929687h15.121094l-.707032-5.929687zm0 0" fill="#009add"/><path d="m111.421875 245.597656v14.078125l14.820313 12.011719 14.824218-12.011719v-14.078125zm0 0" fill="#f6ca14"/><path d="m126.242188 271.6875-11.828126 14.980469-7.398437-15.394531c-.964844-1.996094-.988281-4.3125-.0625-6.324219l4.46875-5.273438zm0 0" fill="#d0d2d3"/><path d="m126.242188 271.6875 11.828124 14.980469 7.402344-15.394531c.964844-1.996094.988282-4.3125.0625-6.324219l-4.46875-5.273438zm0 0" fill="#d0d2d3"/><path d="m131.195312 279.050781-2.851562 2.851563c-1.160156 1.160156-3.039062 1.160156-4.199219 0l-2.851562-2.851563c-1.160157-1.160156-1.160157-3.035156 0-4.195312l.722656-.722657c2.335937-2.335937 6.121094-2.335937 8.457031 0l.722656.722657c1.160157 1.160156 1.160157 3.035156 0 4.195312zm0 0" fill="#23c1e6"/><path d="m130.863281 274.523438-3.136719 3.132812c-.820312.820312-2.148437.820312-2.96875 0l-3.136718-3.132812-.945313.945312c-.820312.820312-.820312 2.148438 0 2.96875l4.082031 4.082031c.820313.820313 2.148438.820313 2.96875 0l4.082032-4.082031c.820312-.820312.820312-2.148438 0-2.96875zm0 0" fill="#1cade3"/><path d="m147.488281 226.921875c0 12.550781-2.269531 33.398437-21.246093 33.398437-18.96875 0-21.246094-20.847656-21.246094-33.398437s1.976562-22.726563 21.246094-22.726563c19.273437 0 21.246093 10.175782 21.246093 22.726563zm0 0" fill="#fff235"/><path d="m126.242188 254.390625c-17.535157 0-20.804688-17.8125-21.199219-30.421875-.03125.96875-.046875 1.953125-.046875 2.953125 0 12.550781 2.273437 33.398437 21.246094 33.398437 18.972656 0 21.246093-20.847656 21.246093-33.398437 0-1-.011719-1.984375-.042969-2.953125-.394531 12.609375-3.664062 30.421875-21.203124 30.421875zm0 0" fill="#fddd3a"/><path d="m110.203125 230.683594c.523437 4.476562-1.25 8.363281-3.964844 8.683594-2.714843.316406-5.339843-3.054688-5.863281-7.53125-.523438-4.480469 1.25-8.367188 3.964844-8.6875 2.710937-.316407 5.339844 3.054687 5.863281 7.535156zm0 0" fill="#fff235"/><path d="m142.078125 230.683594c-.523437 4.476562 1.25 8.363281 3.964844 8.683594 2.714843.316406 5.339843-3.054688 5.863281-7.53125.527344-4.480469-1.25-8.367188-3.960938-8.6875-2.714843-.316407-5.339843 3.054687-5.867187 7.535156zm0 0" fill="#fff235"/><path d="m106.042969 231.929688c-.273438-2.320313-.222657-4.492188.085937-6.257813-.113281 0-.234375 0-.347656.015625-2.15625.25-3.597656 3.046875-3.222656 6.242188.375 3.195312 2.421875 5.582031 4.574218 5.332031.046876-.007813.089844-.019531.136719-.027344-.5625-1.511719-.996093-3.328125-1.226562-5.304687zm0 0" fill="#fddd3a"/><path d="m146.445312 231.929688c.273438-2.320313.21875-4.492188-.085937-6.257813.113281 0 .234375 0 .347656.015625 2.15625.25 3.597657 3.046875 3.222657 6.242188-.148438 1.277343-.574219 2.554687-1.335938 3.601562-.320312.4375-.703125.839844-1.152344 1.152344-.328125.226562-.976562.640625-1.390625.558594.039063-.273438-.003906-.554688-.117187-.800782-.035156-.066406-.070313-.132812-.097656-.199218-.265626-.609376.109374-1.402344.234374-2.007813.160157-.761719.285157-1.53125.375-2.304687zm0 0" fill="#fddd3a"/><path d="m137 213.65625s-4.566406 7.066406-12.507812 7.71875c-7.9375.652344-13.53125 1.136719-15.738282 5.054688-2.210937 3.914062.054688 11.289062-1.707031 11.289062s-5.867187-16.898438.222656-29.078125c6.089844-12.175781 18.308594-11.730469 23.964844-9.664063 5.65625 2.066407 7.503906 5.328126 7.503906 8.703126 0 3.367187-1.738281 5.976562-1.738281 5.976562zm0 0" fill="#1cade3"/><path d="m134.6875 200.664062c.769531 1.277344 1.085938 2.652344 1.085938 4.046876 0 3.367187-1.738282 5.980468-1.738282 5.980468s-4.566406 7.066406-12.503906 7.71875-13.535156 1.136719-15.742188 5.050782c-1.363281 2.414062-1.023437 6.148437-.976562 8.652343.65625 3.394531 1.597656 5.601563 2.234375 5.601563 1.761719 0-.503906-7.375 1.707031-11.289063 2.207032-3.914062 7.800782-4.398437 15.738282-5.054687 7.941406-.652344 12.507812-7.71875 12.507812-7.71875s1.738281-2.609375 1.738281-5.980469c0-2.554687-1.066406-5.050781-4.050781-7.007813zm0 0" fill="#0099dc"/><path d="m138.453125 205.488281s8.230469-.898437 10.761719 6.0625c3.339844 9.191407-1.617188 25.71875-3.109375 25.71875-1.488281 0 .496093-8.105469-1.75-15.351562-2.246094-7.25-7.675781-7.808594-7.675781-7.808594zm0 0" fill="#1cade3"/><path d="m147.320312 218.957031c-2.246093-7.25-7.675781-7.8125-7.675781-7.8125l1.15625-5.617187c-1.375-.140625-2.347656-.035156-2.347656-.035156l-1.773437 8.621093s5.429687.558594 7.675781 7.808594c2.242187 7.25.261719 15.351563 1.75 15.351563.523437 0 1.480469-2.050782 2.351562-5.109376-.046875-2.890624.398438-8.25-1.136719-13.207031zm0 0" fill="#0099dc"/><path d="m107.863281 210.121094c6.089844-12.175782 18.3125-11.730469 23.964844-9.664063 3.53125 1.289063 5.574219 3.046875 6.617187 5.003907-.714843-2.546876-2.808593-4.875-7.210937-6.484376-5.652344-2.066406-17.875-2.515624-23.964844 9.664063-5.242187 10.484375-2.925781 24.472656-1.058593 28.15625-1.675782-5.09375-3.039063-17.285156 1.652343-26.675781zm0 0" fill="#23c1e6"/><path d="m149.214844 211.554688c-2.53125-6.964844-10.761719-6.0625-10.761719-6.0625l-.296875 1.449218c1.929688-.054687 8.050781.257813 10.167969 6.09375 2.710937 7.460938-.042969 19.753906-1.972657 24.121094 1.710938-1.488281 6.039063-16.863281 2.863282-25.601562zm0 0" fill="#23c1e6"/><path d="m126.242188 271.6875-12.851563 12.851562-6.375-13.265624c-.964844-1.996094-.988281-4.3125-.0625-6.324219l4.46875-5.273438zm0 0" fill="#fff"/><path d="m126.242188 271.6875 12.855468 12.851562 6.375-13.265624c.964844-1.996094.988282-4.3125.0625-6.324219l-4.46875-5.273438zm0 0" fill="#fff"/><path d="m398.402344 319.160156h-94.09375c-5.503906 0-9.734375-4.859375-8.976563-10.3125l3.015625-21.730468c.921875-6.609376 5.214844-12.265626 11.339844-14.917969l10.441406-3.523438 4.035156-1.363281c0-.003906 0-.003906 0-.003906l8.058594-2.71875 4.304688-1.453125h29.644531l10.089844 3.40625.992187.335937 15.761719 5.320313c6.125 2.65625 10.421875 8.308593 11.339844 14.917969l1.027343 7.386718 1.210938 8.714844.777344 5.632812c.761718 5.449219-3.46875 10.308594-8.96875 10.308594zm0 0" fill="#e6e7e8"/><path d="m298.351562 290.082031c.917969-6.609375 5.214844-12.265625 11.339844-14.917969l26.84375-9.066406h29.644532l26.84375 9.066406c6.121093 2.652344 10.417968 8.308594 11.335937 14.917969l2.984375 21.488281c.144531-.875.164062-1.789062.035156-2.71875l-3.019531-21.734374c-.917969-6.609376-5.214844-12.261719-11.335937-14.917969l-26.84375-9.066407h-29.644532l-26.84375 9.066407c-6.125 2.65625-10.421875 8.308593-11.339844 14.917969l-3.015624 21.734374c-.132813.929688-.113282 1.84375.03125 2.71875zm0 0" fill="#fff"/><path d="m407.089844 306.761719c-1.109375 3.699219-4.535156 6.46875-8.6875 6.46875h-94.09375c-4.152344 0-7.578125-2.769531-8.683594-6.46875l-.289062 2.089843c-.757813 5.445313 3.472656 10.308594 8.972656 10.308594h94.09375c5.5 0 9.734375-4.859375 8.976562-10.308594zm0 0" fill="#d1d3d4"/><path d="m370.652344 264.957031-4.472656-5.28125-14.820313 12.011719-14.824219-12.011719-4.472656 5.28125c-.921875 2.007813-.902344 4.320313.058594 6.3125l13.9375 28.96875 5.300781 11.019531 19.242187-39.992187c.953126-1.992187.972657-4.304687.050782-6.308594zm0 0" fill="#e6e7e8"/><path d="m358.917969 319.160156-4.796875-40.164062h-5.527344l-4.800781 40.164062zm0 0" fill="#1caee4"/><path d="m344.503906 313.230469-.710937 5.929687h15.125l-.710938-5.929687zm0 0" fill="#009add"/><path d="m336.53125 245.597656v9.628906l.003906 4.449219 14.820313 12.011719 14.824219-12.011719v-14.078125zm0 0" fill="#f6ca14"/><path d="m351.355469 271.6875-11.828125 14.980469-7.398438-15.394531c-.964844-1.996094-.988281-4.3125-.0625-6.324219l4.46875-5.273438zm0 0" fill="#d0d2d3"/><path d="m351.355469 271.6875 11.828125 14.980469 7.402344-15.394531c.960937-1.996094.984374-4.3125.058593-6.324219l-4.464843-5.273438zm0 0" fill="#d0d2d3"/><path d="m356.308594 279.050781-2.851563 2.851563c-1.160156 1.160156-3.042969 1.160156-4.199219 0l-2.851562-2.851563c-1.160156-1.160156-1.160156-3.035156 0-4.195312l.722656-.722657c2.335938-2.335937 6.125-2.335937 8.460938 0l.71875.722657c1.160156 1.160156 1.160156 3.035156 0 4.195312zm0 0" fill="#23c1e6"/><path d="m355.976562 274.523438-3.136718 3.132812c-.820313.820312-2.148438.820312-2.96875 0l-3.136719-3.132812-.945313.945312c-.820312.820312-.820312 2.148438 0 2.96875l4.082032 4.082031c.820312.820313 2.148437.820313 2.96875 0l4.082031-4.082031c.820313-.820312.820313-2.148438 0-2.96875zm0 0" fill="#1cade3"/><path d="m372.601562 226.921875c0 12.550781-2.273437 33.398437-21.246093 33.398437-18.972657 0-21.246094-20.847656-21.246094-33.398437s1.976563-22.726563 21.246094-22.726563 21.246093 10.175782 21.246093 22.726563zm0 0" fill="#fff235"/><path d="m351.355469 254.390625c-17.539063 0-20.804688-17.8125-21.199219-30.421875-.03125.96875-.046875 1.953125-.046875 2.953125 0 12.550781 2.273437 33.398437 21.246094 33.398437 18.972656 0 21.246093-20.847656 21.246093-33.398437 0-1-.011718-1.984375-.046874-2.953125-.394532 12.609375-3.660157 30.421875-21.199219 30.421875zm0 0" fill="#fddd3a"/><path d="m335.3125 230.683594c.527344 4.476562-1.25 8.363281-3.960938 8.683594-2.714843.316406-5.339843-3.054688-5.867187-7.53125-.523437-4.480469 1.25-8.367188 3.964844-8.6875 2.714843-.316407 5.339843 3.054687 5.863281 7.535156zm0 0" fill="#fff235"/><path d="m367.195312 230.683594c-.523437 4.476562 1.25 8.363281 3.960938 8.683594 2.714844.316406 5.339844-3.054688 5.867188-7.53125.523437-4.480469-1.25-8.367188-3.964844-8.6875-2.714844-.316407-5.339844 3.054687-5.863282 7.535156zm0 0" fill="#fff235"/><path d="m331.152344 231.929688c-.269532-2.320313-.21875-4.492188.089844-6.257813-.117188 0-.234376 0-.351563.015625-2.152344.25-3.59375 3.046875-3.21875 6.242188.371094 3.195312 2.421875 5.582031 4.574219 5.332031.046875-.007813.089844-.019531.132812-.027344-.558594-1.511719-.996094-3.328125-1.226562-5.304687zm0 0" fill="#fddd3a"/><path d="m371.558594 231.929688c.269531-2.320313.21875-4.492188-.089844-6.257813.117188 0 .234375 0 .351562.015625 2.152344.25 3.59375 3.046875 3.222657 6.242188-.152344 1.277343-.578125 2.554687-1.339844 3.601562-.320313.4375-.699219.839844-1.148437 1.152344-.328126.226562-.976563.640625-1.390626.558594.039063-.273438-.003906-.554688-.121093-.800782-.03125-.066406-.066407-.132812-.09375-.199218-.265625-.609376.109375-1.402344.234375-2.007813.160156-.761719.285156-1.53125.375-2.304687zm0 0" fill="#fddd3a"/><path d="m362.113281 213.65625s-4.570312 7.066406-12.507812 7.71875-13.53125 1.136719-15.742188 5.054688c-2.210937 3.914062.058594 11.289062-1.703125 11.289062-1.761718 0-5.867187-16.898438.222656-29.078125 6.089844-12.175781 18.308594-11.730469 23.964844-9.664063 5.65625 2.066407 7.503906 5.328126 7.503906 8.703126 0 3.367187-1.738281 5.976562-1.738281 5.976562zm0 0" fill="#1cade3"/><path d="m359.800781 200.664062c.769531 1.277344 1.085938 2.652344 1.085938 4.046876 0 3.367187-1.742188 5.980468-1.742188 5.980468s-4.566406 7.066406-12.503906 7.71875-13.53125 1.136719-15.738281 5.050782c-1.363282 2.414062-1.023438 6.148437-.976563 8.652343.65625 3.394531 1.601563 5.601563 2.234375 5.601563 1.765625 0-.503906-7.375 1.707032-11.289063 2.207031-3.914062 7.804687-4.398437 15.742187-5.054687 7.9375-.652344 12.503906-7.71875 12.503906-7.71875s1.742188-2.609375 1.742188-5.980469c-.003907-2.554687-1.070313-5.050781-4.054688-7.007813zm0 0" fill="#0099dc"/><path d="m363.566406 205.488281s8.230469-.898437 10.757813 6.0625c3.339843 9.191407-1.617188 25.71875-3.105469 25.71875-1.492188 0 .492188-8.105469-1.753906-15.351562-2.242188-7.25-7.675782-7.808594-7.675782-7.808594zm0 0" fill="#1cade3"/><path d="m372.433594 218.957031c-2.246094-7.25-7.675782-7.8125-7.675782-7.8125l1.15625-5.617187c-1.375-.140625-2.347656-.035156-2.347656-.035156l-1.773437 8.621093s5.429687.558594 7.675781 7.808594c2.242188 7.25.261719 15.351563 1.75 15.351563.523438 0 1.480469-2.050782 2.351562-5.109376-.046874-2.890624.398438-8.25-1.136718-13.207031zm0 0" fill="#0099dc"/><path d="m332.976562 210.121094c6.089844-12.175782 18.308594-11.730469 23.964844-9.664063 3.527344 1.289063 5.574219 3.046875 6.613282 5.003907-.710938-2.546876-2.808594-4.875-7.207032-6.484376-5.652344-2.066406-17.875-2.515624-23.964844 9.664063-5.246093 10.484375-2.929687 24.472656-1.058593 28.15625-1.679688-5.09375-3.042969-17.285156 1.652343-26.675781zm0 0" fill="#23c1e6"/><path d="m374.324219 211.554688c-2.527344-6.964844-10.757813-6.0625-10.757813-6.0625l-.296875 1.449218c1.925781-.054687 8.046875.257813 10.167969 6.09375 2.710938 7.460938-.046875 19.753906-1.976562 24.121094 1.714843-1.488281 6.042968-16.863281 2.863281-25.601562zm0 0" fill="#23c1e6"/><path d="m351.355469 271.6875-12.851563 12.851562-6.375-13.265624c-.964844-1.996094-.988281-4.3125-.0625-6.324219l4.46875-5.273438zm0 0" fill="#fff"/><path d="m351.355469 271.6875 12.855469 12.851562 6.375-13.265624c.960937-1.996094.984374-4.3125.058593-6.324219l-4.464843-5.273438zm0 0" fill="#fff"/><path d="m318.4375 341.46875h-159.273438c-9.3125 0-16.472656-8.226562-15.191406-17.453125l5.105469-36.785156c1.554687-11.1875 8.828125-20.757813 19.195313-25.25l17.675781-5.964844 6.832031-2.308594c.003906-.003906.003906-.003906.003906-.003906l13.640625-4.605469 7.285157-2.457031h50.179687l17.078125 5.765625 1.675781.566406 26.679688 9.007813c10.367187 4.492187 17.640625 14.0625 19.199219 25.253906l1.734374 12.5 2.050782 14.753906 1.320312 9.53125c1.277344 9.222657-5.882812 17.449219-15.191406 17.449219zm0 0" fill="#e6e7e8"/><path d="m149.078125 292.25c1.554687-11.1875 8.828125-20.761719 19.195313-25.253906l45.4375-15.34375h50.179687l45.4375 15.34375c10.363281 4.492187 17.636719 14.0625 19.191406 25.253906l5.050781 36.375c.246094-1.484375.277344-3.027344.058594-4.605469l-5.109375-36.789062c-1.554687-11.1875-8.828125-20.757813-19.191406-25.25l-45.4375-15.347657h-50.179687l-45.4375 15.347657c-10.367188 4.492187-17.640626 14.0625-19.195313 25.25l-5.109375 36.789062c-.21875 1.574219-.183594 3.121094.058594 4.605469zm0 0" fill="#fff"/><path d="m333.136719 320.480469c-1.871094 6.261719-7.675781 10.953125-14.703125 10.953125h-159.269532c-7.027343 0-12.828124-4.691406-14.703124-10.953125l-.488282 3.535156c-1.28125 9.222656 5.882813 17.453125 15.191406 17.453125h159.269532c9.3125 0 16.476562-8.230469 15.195312-17.453125zm0 0" fill="#d1d3d4"/><path d="m271.460938 249.71875-7.570313-8.9375-25.089844 20.328125-25.089843-20.328125-7.570313 8.9375c-1.5625 3.398438-1.527344 7.3125.09375 10.679688l23.59375 49.042968 8.972656 18.648438 32.566407-67.691406c1.621093-3.367188 1.65625-7.285157.09375-10.679688zm0 0" fill="#e6e7e8"/><path d="m251.597656 341.46875-8.121094-67.980469h-9.351562l-8.121094 67.980469zm0 0" fill="#1caee4"/><path d="m227.199219 331.433594-1.195313 10.035156h25.59375l-1.199218-10.035156zm0 0" fill="#009add"/><path d="m213.707031 216.953125v16.300781l.003907 7.527344 25.089843 20.328125 25.085938-20.328125.003906-23.828125zm0 0" fill="#f6ca14"/><path d="m238.800781 261.109375-20.019531 25.359375-12.527344-26.0625c-1.632812-3.371094-1.671875-7.296875-.105468-10.703125l7.5625-8.925781zm0 0" fill="#d0d2d3"/><path d="m238.800781 261.109375 20.019531 25.359375 12.527344-26.0625c1.628906-3.371094 1.671875-7.296875.105469-10.703125l-7.566406-8.925781zm0 0" fill="#d0d2d3"/><path d="m247.183594 273.578125-4.832032 4.832031c-1.960937 1.960938-5.144531 1.960938-7.105468 0l-4.832032-4.832031c-1.960937-1.960937-1.960937-5.140625 0-7.105469l1.226563-1.21875c3.953125-3.957031 10.363281-3.957031 14.316406 0l1.222657 1.21875c1.964843 1.964844 1.964843 5.144532.003906 7.105469zm0 0" fill="#23c1e6"/><path d="m246.621094 265.910156-5.308594 5.308594c-1.386719 1.390625-3.636719 1.390625-5.023438 0l-5.308593-5.308594-1.601563 1.605469c-1.390625 1.386719-1.390625 3.636719 0 5.023437l6.90625 6.910157c1.390625 1.390625 3.640625 1.390625 5.027344 0l6.910156-6.910157c1.386719-1.386718 1.386719-3.636718 0-5.023437zm0 0" fill="#1cade3"/><path d="m238.808594 324.773438-.003906.003906v-.003906zm0 0" fill="#0099dc"/><path d="m274.761719 185.339844c0 21.246094-3.847657 56.535156-35.960938 56.535156s-35.960937-35.285156-35.960937-56.535156c0-21.246094 3.34375-38.472656 35.960937-38.472656 32.613281 0 35.960938 17.226562 35.960938 38.472656zm0 0" fill="#fff235"/><path d="m238.800781 231.839844c-29.6875 0-35.21875-30.152344-35.886719-51.492188-.054687 1.632813-.074218 3.300782-.074218 4.992188 0 21.25 3.847656 56.535156 35.960937 56.535156s35.960938-35.285156 35.960938-56.535156c0-1.691406-.023438-3.359375-.078125-4.992188-.664063 21.339844-6.199219 51.492188-35.882813 51.492188zm0 0" fill="#fddd3a"/><path d="m211.644531 191.707031c.890625 7.578125-2.113281 14.160157-6.707031 14.695313-4.59375.539062-9.039062-5.167969-9.925781-12.75-.890625-7.578125 2.113281-14.160156 6.707031-14.695313 4.59375-.539062 9.039062 5.167969 9.925781 12.75zm0 0" fill="#fff235"/><path d="m265.605469 191.707031c-.886719 7.578125 2.117187 14.160157 6.710937 14.695313 4.59375.539062 9.039063-5.167969 9.925782-12.75.886718-7.578125-2.117188-14.160156-6.710938-14.695313-4.589844-.539062-9.039062 5.167969-9.925781 12.75zm0 0" fill="#fff235"/><path d="m204.605469 193.816406c-.460938-3.925781-.375-7.601562.148437-10.589844-.199218-.003906-.394531 0-.59375.023438-3.644531.429688-6.085937 5.15625-5.449218 10.566406.632812 5.410156 4.101562 9.449219 7.746093 9.023438.078125-.007813.152344-.03125.226563-.042969-.953125-2.5625-1.691406-5.636719-2.078125-8.980469zm0 0" fill="#fddd3a"/><path d="m272.996094 193.816406c.460937-3.925781.371094-7.601562-.148438-10.589844.195313-.003906.390625 0 .589844.023438 3.648438.429688 6.085938 5.15625 5.453125 10.566406-.253906 2.164063-.976563 4.324219-2.265625 6.09375-.542969.746094-1.1875 1.425782-1.945312 1.949219-.554688.382813-1.65625 1.085937-2.355469.949219.066406-.460938-.003907-.9375-.203125-1.355469-.050782-.113281-.113282-.222656-.164063-.335937-.445312-1.03125.1875-2.375.402344-3.402344.273437-1.285156.484375-2.589844.636719-3.898438zm0 0" fill="#fddd3a"/><path d="m257.007812 162.886719s-7.730468 11.964843-21.167968 13.066406c-13.4375 1.105469-22.902344 1.925781-26.644532 8.550781-3.738281 6.625.097657 19.109375-2.886718 19.109375-2.980469 0-9.929688-28.601562.378906-49.21875 10.304688-20.613281 30.992188-19.855469 40.566406-16.355469 9.570313 3.496094 12.699219 9.015626 12.699219 14.722657-.003906 5.707031-2.945313 10.125-2.945313 10.125zm0 0" fill="#1cade3"/><path d="m253.09375 140.894531c1.300781 2.167969 1.839844 4.492188 1.839844 6.847657 0 5.707031-2.949219 10.125-2.949219 10.125s-7.726563 11.964843-21.164063 13.070312c-13.4375 1.101562-22.90625 1.921875-26.644531 8.546875-2.308593 4.089844-1.730469 10.410156-1.652343 14.652344 1.113281 5.742187 2.707031 9.476562 3.785156 9.476562 2.980468 0-.855469-12.484375 2.886718-19.109375 3.738282-6.625 13.207032-7.445312 26.644532-8.550781 13.433594-1.101563 21.164062-13.066406 21.164062-13.066406s2.945313-4.417969 2.945313-10.125c0-4.328125-1.804688-8.554688-6.855469-11.867188zm0 0" fill="#0099dc"/><path d="m259.46875 149.0625s13.929688-1.523438 18.214844 10.261719c5.652344 15.558593-2.742188 43.535156-5.261719 43.535156-2.523437 0 .835937-13.714844-2.964844-25.984375s-12.996093-13.222656-12.996093-13.222656zm0 0" fill="#1cade3"/><path d="m274.472656 171.855469c-3.796875-12.269531-12.992187-13.21875-12.992187-13.21875l1.957031-9.511719c-2.328125-.238281-3.972656-.0625-3.972656-.0625l-3.003906 14.589844s9.195312.953125 12.996093 13.222656.441407 25.984375 2.964844 25.984375c.886719 0 2.503906-3.472656 3.976563-8.644531-.074219-4.894532.675781-13.960938-1.925782-22.359375zm0 0" fill="#0099dc"/><path d="m207.6875 156.902344c10.308594-20.613282 30.996094-19.855469 40.566406-16.355469 5.972656 2.179687 9.4375 5.152344 11.199219 8.464844-1.207031-4.304688-4.753906-8.253907-12.199219-10.976563-9.574218-3.496094-30.261718-4.253906-40.566406 16.359375-8.878906 17.75-4.957031 41.421875-1.792969 47.65625-2.84375-8.621093-5.152343-29.253906 2.792969-45.148437zm0 0" fill="#23c1e6"/><path d="m277.683594 159.324219c-4.285156-11.785157-18.214844-10.261719-18.214844-10.261719l-.507812 2.453125c3.265624-.085937 13.628906.441406 17.214843 10.320313 4.589844 12.625-.074219 33.433593-3.347656 40.824218 2.902344-2.515625 10.226563-28.539062 4.855469-43.335937zm0 0" fill="#23c1e6"/><g fill="#fff"><path d="m238.800781 261.109375-21.753906 21.753906-10.792969-22.453125c-1.632812-3.375-1.675781-7.300781-.109375-10.707031l7.566407-8.921875zm0 0"/><path d="m238.800781 261.109375 21.753907 21.757813 10.792968-22.460938c1.628906-3.371094 1.671875-7.296875.105469-10.703125l-7.566406-8.925781zm0 0"/></g></svg>